<?xml version="1.0" encoding="UTF-8" standalone="no"?><!DOCTYPE svg PUBLIC "-//W3C//DTD SVG 1.1//EN" "http://www.w3.org/Graphics/SVG/1.1/DTD/svg11.dtd"><svg width="100%" height="100%" viewBox="0 0 842 167" version="1.1" xmlns="http://www.w3.org/2000/svg" xmlns:xlink="http://www.w3.org/1999/xlink" xml:space="preserve" xmlns:serif="http://www.serif.com/" style="fill-rule:evenodd;clip-rule:evenodd;stroke-linejoin:round;stroke-miterlimit:2;"><rect x="-2.564" y="0.204" width="847.381" height="166.926" style="fill:#fff;"/><g><path d="M82.356,141.801c3.43,5.787 2.877,10.469 -2.701,13.711c-4.334,2.519 -8.959,1.533 -10.952,-2.65c-1.411,-2.964 -1.654,-8.835 0.205,-10.531c4.272,-3.895 4.009,-7.89 3.568,-12.585c-0.348,-3.706 -0.248,-7.452 -0.414,-11.178c-0.5,-11.189 -1.458,-12.471 -11.774,-15.307c-0.999,-0.275 -2.724,-0.161 -3.258,0.481c-4.443,5.352 -12.787,7.518 -12.296,17.022c0.249,4.822 -4.179,8.703 -9.15,7.333c-3.258,-0.899 -7.014,-4.522 -8.09,-7.744c-1.612,-4.831 2.155,-10.328 6.663,-9.39c11.088,2.307 14.824,-6.32 21.237,-11.46c-1.544,-3.816 -2.997,-7.41 -5.26,-13.006c-4.001,2.71 -7.714,4.757 -10.852,7.469c-3.886,3.359 -7.865,4.586 -12.079,1.415c-4.332,-3.26 -5.581,-7.689 -2.158,-12.372c3.047,-4.17 7.209,-5.253 11.797,-2.55c12.216,7.195 12.547,7.12 17.727,-6.671c-9.721,-8.047 -19.563,-16.33 -29.628,-24.332c-1.099,-0.874 -3.518,-0.383 -5.257,-0.103c-6.378,1.029 -11.031,-1.655 -11.741,-7.178c-0.728,-5.661 2.181,-9.068 7.448,-10.306c5.088,-1.197 9.511,3.002 10.612,8.974c0.438,2.377 1.508,5.177 3.246,6.684c9.003,7.81 18.314,15.264 27.834,23.102c2.97,-1.742 5.902,-3.461 9.354,-5.486c-1.168,-13.134 -2.228,-26.476 -3.697,-39.773c-0.184,-1.664 -2.314,-3.383 -3.919,-4.568c-4.967,-3.668 -6.414,-9.272 -2.881,-13.461c3.578,-4.241 8.039,-4.81 12.578,-1.604c4.635,3.274 4.682,8.495 0.625,13.616c-1.123,1.416 -2.595,3.297 -2.467,4.846c1.104,13.333 2.538,26.638 4,41.216c2.953,-0.818 6.759,-0.867 7.284,-2.206c1.569,-3.994 1.894,-8.487 2.625,-12.799c0.65,-3.832 0.062,-8.584 2.165,-11.221c1.525,-1.912 6.988,-2.156 9.876,-1.035c2.227,0.865 4.423,5.041 4.352,7.683c-0.072,2.636 -2.694,7.146 -4.7,7.443c-7.806,1.156 -8.506,7.132 -10.569,13.312c1.746,1.183 3.652,2.473 5.885,3.986c13.727,-11.936 27.261,-23.606 40.608,-35.484c1.114,-0.991 1.208,-3.364 1.379,-5.133c0.603,-6.211 4.601,-9.928 10.295,-9.12c5.729,0.813 8.085,4.564 7.599,10.008c-0.497,5.568 -5.416,8.392 -11.475,7.479c-2.1,-0.316 -5.029,-0.116 -6.495,1.127c-13.059,11.081 -25.876,22.45 -39.124,34.048c1.096,2.746 2.157,5.406 3.411,8.55c5.599,-0.402 11.092,0.518 15.013,-5.997c2.77,-4.601 8.254,-4.571 12.445,-1.049c4.261,3.581 4.536,8.303 0.912,12.542c-3.639,4.256 -7.926,4.094 -12.654,1.156c-2.627,-1.632 -5.851,-2.974 -8.879,-3.145c-5.802,-0.326 -8.611,2.797 -7.365,9.341c9.002,2.789 18.172,5.784 27.455,8.371c1.727,0.482 4.062,-0.332 5.852,-1.136c5.739,-2.578 10.769,-1.142 13.076,4.193c2.341,5.414 -0.035,9.271 -4.761,11.637c-4.928,2.467 -9.877,-0.501 -12.261,-6.131c-0.875,-2.067 -3.244,-3.504 -4.951,-5.208c-0.159,-0.159 -0.454,-0.191 -0.693,-0.256c-13.679,-3.717 -27.463,-13.555 -41.447,3.474c0.341,6.802 0.545,16.391 1.517,25.902c0.208,2.029 3.207,3.774 5.305,6.054Z" style="fill:#ff3b00;fill-rule:nonzero;"/><path d="M672.127,121.053c-0.491,-13.14 -0.491,-25.419 -0.491,-38.437l-44.642,-0l0,39.312l-11.791,-0l-0,-84.066l11.221,-0l0,33.595l45.027,-0l0,-33.455c3.973,-0.284 7.381,-0.527 11.476,-0.82l-0,84.733c-3.447,-0 -6.878,-0 -10.8,-0.862Z" style="fill:#001840;fill-rule:nonzero;"/><path d="M783.873,55.934c-0.001,2.739 -0.001,4.538 -0.001,7.761c2.38,-1.927 3.815,-3.213 5.372,-4.33c13.847,-9.939 32.371,-3.93 35.902,12.618c1.99,9.329 2.394,19.499 1.047,28.938c-3.425,23.988 -21.115,30.917 -39.614,17.352c-4.418,1.847 -8.395,3.509 -13.009,5.438c-0.418,-3.001 -0.682,-4.014 -0.682,-5.028c-0.023,-28.208 -0.018,-56.417 -0.018,-85.134l11.004,0c0,7.154 0,14.3 -0.001,22.385m30.184,50.756c0.263,-10.025 1.123,-20.082 0.59,-30.064c-0.397,-7.433 -4.446,-12.834 -12.97,-13.188c-8.442,-0.349 -14.726,3.449 -15.741,11.582c-1.227,9.836 -1.559,20.128 0.094,29.819c0.727,4.261 6.721,9.111 11.385,10.854c6.44,2.406 12.878,0.073 16.642,-9.003Z" style="fill:#001840;fill-rule:nonzero;"/><path d="M486.515,72.149c-8.28,-0.478 -5.886,-4.746 -3.482,-8.029c7.544,-10.304 18.689,-10.21 29.593,-8.715c9.965,1.366 16.664,7.393 17.312,17.957c0.665,10.846 0.391,21.748 0.791,32.615c0.178,4.844 -0.845,10.646 6.736,11.519c1.013,0.116 2.66,2.588 2.434,3.622c-0.283,1.293 -2.077,2.963 -3.437,3.196c-8.731,1.495 -15.133,-0.971 -16.215,-9.342c-7.048,3.146 -14.07,7.997 -21.695,9.287c-11.771,1.991 -19.341,-4.486 -21.155,-15.245c-1.88,-11.148 3.479,-20.919 14.334,-23.469c8.717,-2.047 17.858,-2.295 29.907,-3.703c-3.214,-6.222 -4.723,-14.311 -9.252,-16.721c-7.134,-3.795 -16.354,-4.12 -21.111,6.07c-0.364,0.78 -2.594,0.69 -4.76,0.958m10.925,20.108c-8.255,3.733 -11.181,9.989 -7.762,18.376c3.089,7.58 9.956,6.24 15.787,4.85c9.609,-2.291 14.447,-11.745 12.772,-24.674c-6.232,0.366 -12.582,0.738 -20.797,1.448Z" style="fill:#001840;fill-rule:nonzero;"/><path d="M711.997,57.339c1.259,14.027 1.511,27.756 1.955,41.478c0.259,8.018 -0.37,16.742 11.48,17.215c10.501,0.419 17.164,-5.636 17.594,-17.515c0.484,-13.375 0.111,-26.781 0.111,-40.896c3.798,-0.249 6.859,-0.449 10.591,-0.693l-0,66.628c-4.092,-1.826 -7.674,-3.425 -13.148,-5.868c0.421,-0.359 -1.182,2.167 -3.108,2.444c-8.217,1.179 -17.327,4.048 -24.522,1.61c-4.694,-1.59 -8.866,-11.05 -9.406,-17.318c-1.332,-15.458 -0.437,-31.107 -0.437,-47.031c2.963,-0.132 5.463,-0.244 8.89,-0.054Z" style="fill:#001840;fill-rule:nonzero;"/><path d="M343.47,114.105c-2.181,-11.918 -5.801,-23.277 -5.141,-34.382c1.007,-16.962 12.619,-25.437 29.591,-24.821c16.168,0.586 25.207,9.693 26.458,27.001c0.364,5.042 0.367,10.156 -0.003,15.198c-0.851,11.579 -5.111,21.418 -16.93,25.413c-12.485,4.22 -24.323,3.443 -33.975,-8.409m7.205,-39.937c-0.076,9.962 -0.96,20.004 0.023,29.86c0.807,8.095 6.597,12.341 15.152,12.329c8.359,-0.012 14.347,-3.64 15.59,-11.906c1.271,-8.453 2.562,-17.454 0.891,-25.61c-1.152,-5.627 -6.334,-12.488 -11.491,-14.752c-7.632,-3.35 -15.672,-0.498 -20.165,10.079Z" style="fill:#001840;fill-rule:nonzero;"/><path d="M271.196,118.895c-8.901,7.182 -18.127,7.619 -27.145,3.237c-8.864,-4.308 -9.035,-13.191 -9.055,-21.67c-0.034,-14.075 -0.009,-28.15 -0.009,-43.024c3.53,-0.181 6.592,-0.338 11.001,-0.565c0,14.848 -0.054,29.208 0.023,43.566c0.041,7.603 0.754,14.886 10.856,15.546c9.848,0.644 16.898,-3.765 17.555,-13.525c0.991,-14.73 0.258,-29.577 0.258,-44.917l11.478,-0l-0,64.248c-4.681,0.668 -10.099,3.257 -10.03,-5.372c-1.435,0.621 -2.87,1.242 -4.932,2.476Z" style="fill:#001840;fill-rule:nonzero;"/><path d="M158.764,37.446l67.953,0l0,8.654l-27.692,-0l0,75.678l-11.673,-0l0,-74.031c-9.927,-1.081 -19.266,-2.04 -28.551,-3.373c-0.295,-0.042 -0.037,-3.928 -0.037,-6.928Z" style="fill:#001840;fill-rule:nonzero;"/><path d="M316.762,96.128c0.001,2.878 0.04,4.693 -0.003,6.507c-0.201,8.382 0.219,16.204 14.094,12.331c-0.088,1.426 -0.175,2.851 -0.263,4.277c-3.01,1.774 -5.855,4.606 -9.065,5.109c-7.711,1.207 -14.175,-1.497 -14.805,-10.254c-0.806,-11.193 -0.128,-22.494 -0.952,-33.685c-0.428,-5.815 4.632,-14.477 -6.5,-16.494c-0.407,-0.074 -0.142,-3.856 -0.189,-5.91c9.911,-0.212 8.066,-8.655 10.446,-14.35c0.558,-1.335 3.946,-1.488 6.82,-2.449c0.283,5.816 0.505,10.391 0.746,15.332c3.836,0.301 7.373,0.579 10.91,0.856c0.548,1.044 1.096,2.088 1.644,3.132c-3.676,2.211 -7.353,4.421 -12.883,7.747l-0,27.851Z" style="fill:#001840;fill-rule:nonzero;"/><path d="M549.289,122.589l0,-88.992c3.621,-0.206 6.685,-0.38 10.34,-0.588l-0,88.968c-2.853,0.169 -5.951,0.352 -10.34,0.612Z" style="fill:#001840;fill-rule:nonzero;"/><path d="M424.958,59.439c4.688,-2.341 8.844,-3.991 14.338,-6.172c0.295,4.883 0.477,7.904 0.656,10.877c-14.894,1.942 -18.837,6.116 -19.296,21.104c-0.365,11.911 -0.074,23.843 -0.074,36.492l-10.663,0l-0,-66.442c4.961,2.515 8.74,4.432 13.113,6.648c-0.298,0.387 0.549,-0.714 1.926,-2.507Z" style="fill:#001840;fill-rule:nonzero;"/><path d="M452.271,58.543c3.52,-1.137 6.636,-1.393 10.171,-1.684l-0,65.136l-10.577,-0c0,-20.932 0,-41.752 0.406,-63.452Z" style="fill:#001840;fill-rule:nonzero;"/></g></svg>